HIERARCHY
ROOT pelvis
{
  OFFSET 0 100 0
  CHANNELS 6 Xposition Yposition Zposition Zrotation Xrotation Yrotation
  JOINT pelvis_right_femur
  {
    OFFSET -10.78128 -3.44521 -0.5502486
    CHANNELS 3 Zrotation Xrotation Yrotation
    JOINT right_femur_tibia
    {
      OFFSET -0.8047443 -44.0398 -0.1307829
      CHANNELS 3 Zrotation Xrotation Yrotation
      JOINT right_tibia_foot
      {
        OFFSET 3.006224 -47.83518 -5
        CHANNELS 3 Zrotation Xrotation Yrotation
        End Site
        {
          OFFSET 0 -5 15
        }
      }
    }
  }
  JOINT pelvis_left_femur
  {
    OFFSET 10.78128 -3.44521 -0.5502486
    CHANNELS 3 Zrotation Xrotation Yrotation
    JOINT left_femur_tibia
    {
      OFFSET 0.8047443 -44.0398 -0.1307829
      CHANNELS 3 Zrotation Xrotation Yrotation
      JOINT left_tibia_foot
      {
        OFFSET -4.370144 -48.10324 -4.275266
        CHANNELS 3 Zrotation Xrotation Yrotation
        End Site
        {
          OFFSET 0 -5 15
        }
      }
    }
  }
  JOINT pelvis_spine1
  {
    OFFSET 0 6.468898 -3.129235
    CHANNELS 3 Zrotation Xrotation Yrotation
    JOINT spine1
    {
      OFFSET 0 23.15396 4.99043
      CHANNELS 3 Zrotation Xrotation Yrotation
      JOINT spine2
      {
        OFFSET 0 20.79997 -5.064912
        CHANNELS 3 Zrotation Xrotation Yrotation
        JOINT neck
        {
          OFFSET 0 14.38658 9.616178
          CHANNELS 3 Zrotation Xrotation Yrotation
          End Site
          {
            OFFSET 0 20 0
          }
        }
      }
      JOINT right_manubrium
      {
        OFFSET -5.722621 16.35077 3.967754
        CHANNELS 3 Zrotation Xrotation Yrotation
        JOINT right_clavicle
        {
          OFFSET -13.16364 1.694482 -4.693211
          CHANNELS 3 Zrotation Xrotation Yrotation
          JOINT right_humerus
          {
            OFFSET -28.5034 -0.3100689 -2.792744
            CHANNELS 3 Zrotation Xrotation Yrotation
            JOINT right_radius
            {
              OFFSET -25.15693 0.02248979 -1.271978
              CHANNELS 3 Zrotation Xrotation Yrotation
              End Site
              {
                OFFSET -15 0 0
              }
            }
          }
        }
      }
      JOINT left_manubrium
      {
        OFFSET 5.722621 16.35077 3.967754
        CHANNELS 3 Zrotation Xrotation Yrotation
        JOINT left_clavicle
        {
          OFFSET 13.16364 1.694482 -4.693211
          CHANNELS 3 Zrotation Xrotation Yrotation
          JOINT left_humerus
          {
            OFFSET 29.39168 -1.063119 -2.237045
            CHANNELS 3 Zrotation Xrotation Yrotation
            JOINT left_radius
            {
              OFFSET 24.59957 -0.9528479 0.9047498
              CHANNELS 3 Zrotation Xrotation Yrotation
              End Site
              {
                OFFSET 15 -0 -0
              }
            }
          }
        }
      }
    }
  }
}
MOTION
Frames: 17
Frame Time: 0.0416666666667
2039.277 104.453 968.564 6.172642 6.022718 124.3328 -0.5989407 -4.111107 2.876783 -0 61.42402 -0 -2.92606 0.1425427 -5.420721 -6.051058 4.377036 -12.32341 -0 15.53545 -0 -2.694662 -13.82259 17.71474 -3.405697 -0.1173754 2.716218 -0.3277167 9.644422 -5.941092 1.028922 23.86398 6.827598 2.342893 -18.15237 8.089054 3.088399 -16.91053 10.16553 87.6339 28.36619 -14.29536 -0 0 14.30911 -20.68008 9.992403 11.35789 3.449984 -17.26937 -3.954781 -88.13178 26.08601 16.17562 0 0 -10.24389 0.7262162 9.571456 12.19001
2042.55 105.3543 965.8456 5.81606 5.801402 125.6273 -0.3789647 -7.97212 2.745475 -0 57.3434 -0 -3.655096 -3.720636 -6.131249 -6.01195 8.321888 -13.41755 -0 12.69304 -0 -2.388173 -15.15801 17.68817 -3.387438 -0.3086721 2.007661 0.273254 9.160796 -6.759433 0.7789211 24.17284 6.914849 2.142959 -18.2084 8.116356 3.111769 -16.52329 10.07132 88.37654 28.92828 -16.13569 -0 0 13.18143 -18.80112 9.595025 10.47919 3.577707 -17.94456 -4.004256 -87.31551 27.83797 14.2425 0 0 -12.77685 -0.08248966 10.46673 12.87055
2045.563 105.7709 963.3644 5.227832 5.533435 126.7807 -0.2546991 -11.15392 2.623828 -0 51.47 -0 -4.115573 -6.855306 -6.599139 -6.02436 11.16234 -14.40453 -0 10.36272 -0 -2.360926 -16.68283 17.67558 -3.399251 -0.5271387 1.717433 0.6910231 8.676964 -7.28881 0.7053064 24.31706 6.979082 2.09931 -18.32653 8.172611 2.998323 -16.27574 9.939896 88.94106 29.26012 -17.74011 -0 0 12.42046 -17.29032 9.35046 9.693881 3.947426 -18.58006 -4.00507 -86.86852 29.64116 12.88712 0 0 -15.53126 -1.142152 11.23671 14.0449
2048.467 105.7004 960.9972 4.533615 5.221266 127.7917 -0.193491 -14.02965 2.469203 -0 44.83736 -0 -4.324757 -8.929679 -6.869537 -6.050653 13.21132 -15.13078 -0 8.617522 -0 -2.645021 -18.32095 17.51653 -3.400933 -0.6881727 1.70559 0.9305449 8.236998 -7.582956 0.7847709 24.29789 7.012001 2.171824 -18.4774 8.259041 2.785394 -16.07309 9.774181 89.39911 29.3463 -19.10941 -0 0 11.91453 -16.16339 9.260687 8.977422 4.499994 -19.20307 -3.988607 -86.58215 31.2334 11.8615 0 0 -18.28418 -2.12978 11.8093 15.30874
2051.393 105.1844 958.6375 3.824927 4.855189 128.6846 -0.1449825 -16.83953 2.277308 -0 38.14737 -0 -4.36407 -9.967482 -6.999782 -6.039884 14.78862 -15.54958 -0 7.467354 -0 -3.218708 -19.94667 17.13774 -3.361235 -0.7634756 1.83412 1.031366 7.854246 -7.720471 0.9772236 24.14181 7.006971 2.318028 -18.63725 8.362894 2.527997 -15.84295 9.579367 89.79876 29.25953 -20.28034 -0 0 11.53448 -15.34884 9.301712 8.292425 5.161281 -19.8318 -3.963242 -86.28894 32.46943 10.94565 0 0 -20.87925 -2.823618 12.21195 16.35471
2054.45 104.2971 956.2013 3.158179 4.417705 129.4901 -0.04504255 -19.66575 2.080377 -0 31.85098 -0 -4.329813 -10.12579 -7.038977 -5.946988 16.12326 -15.68913 -0 6.949197 -0 -4.040703 -21.41566 16.53503 -3.256837 -0.761892 1.999982 1.038957 7.532834 -7.770544 1.243689 23.88032 6.961577 2.505937 -18.79869 8.468077 2.287023 -15.54841 9.366822 90.16729 29.11254 -21.29656 -0 0 11.17564 -14.75425 9.453613 7.613823 5.857516 -20.46481 -3.922883 -85.91369 33.31441 10.03484 0 0 -23.21127 -3.134154 12.51517 17.03892
2057.726 103.1416 953.6254 2.571296 3.887724 130.2333 0.1837619 -22.46496 1.935794 -0 26.26885 -0 -4.306418 -9.591664 -7.020782 -5.737623 17.34235 -15.6075 -0 7.150933 -0 -5.067997 -22.574 15.74084 -3.065854 -0.7074267 2.132363 0.9955029 7.276602 -7.784761 1.549454 23.54383 6.877844 2.709768 -18.96919 8.561766 2.11845 -15.1813 9.153006 90.51807 29.01833 -22.1895 -0 0 10.76333 -14.29911 9.70847 6.940257 6.516349 -21.07865 -3.853796 -85.46417 33.79988 9.13306 0 0 -25.19435 -3.070248 12.78414 17.34576
2061.293 101.8477 950.8635 2.101203 3.250165 130.9285 0.6274548 -25.09602 1.913809 -0 21.66652 -0 -4.35461 -8.565151 -6.966895 -5.389597 18.48769 -15.36023 -0 8.21244 -0 -6.25781 -23.25706 14.80407 -2.764699 -0.6246052 2.182088 0.9402346 7.09009 -7.798385 1.861418 23.16443 6.761683 2.901557 -19.16278 8.637095 2.063281 -14.75129 8.957069 90.85569 29.05896 -22.9681 -0 0 10.24587 -13.9269 10.06457 6.298002 7.064324 -21.62745 -3.74 -84.99813 33.98162 8.308101 0 0 -26.73687 -2.69633 13.05166 17.32881
2065.204 100.5676 947.8809 1.794331 2.512518 131.5753 1.363144 -27.32654 2.080562 -0 18.26586 -0 -4.505395 -7.27819 -6.893606 -4.898661 19.5284 -14.98262 -0 10.32563 -0 -7.557487 -23.29032 13.78692 -2.331463 -0.5316365 2.117355 0.9111645 6.977531 -7.831419 2.145276 22.78205 6.622368 3.046443 -19.38898 8.692516 2.137774 -14.27782 8.79946 91.17721 29.2597 -23.6143 -0 0 9.588976 -13.61011 10.51425 5.740399 7.427759 -22.045 -3.569333 -84.59151 33.90748 7.643979 0 0 -27.73151 -2.100989 13.30565 17.06029
2069.493 99.46648 944.6507 1.705995 1.727105 132.1549 2.421292 -28.82543 2.47003 -0 16.20488 -0 -4.755871 -6.012723 -6.816077 -4.29121 20.35672 -14.48379 -0 13.73668 -0 -8.886429 -22.50318 12.77425 -1.757396 -0.4398192 1.931749 0.9429625 6.943783 -7.88605 2.36552 22.44949 6.471468 3.105437 -19.6411 8.727717 2.32557 -13.78772 8.702122 91.46984 29.5716 -24.08371 -0 0 8.77863 -13.3538 11.03022 5.340807 7.539985 -22.25375 -3.341108 -84.31822 33.59609 7.209278 0 0 -28.06468 -1.378255 13.48749 16.59789
2074.164 98.70737 941.1555 1.884104 1.011232 132.6245 3.730631 -29.16581 3.047634 -0 15.46935 -0 -5.067167 -5.091634 -6.746319 -3.640159 20.76114 -13.85162 -0 18.73159 -0 -10.11798 -20.76891 11.88482 -1.067013 -0.3568395 1.666706 1.057562 6.999218 -7.940828 2.490236 22.23113 6.320284 3.047374 -19.88823 8.736796 2.576949 -13.32142 8.689909 91.70611 29.8749 -24.31373 -0 0 7.838534 -13.19503 11.55765 5.17465 7.355777 -22.18551 -3.073433 -84.2449 33.03509 7.055776 0 0 -27.6515 -0.6204518 13.50593 15.97709
2079.173 98.42871 937.3985 2.334494 0.5460047 132.9152 5.076289 -27.88548 3.690646 -0 15.82543 -0 -5.368554 -4.818203 -6.680147 -3.070583 20.38404 -13.06916 -0 25.54852 -0 -11.07584 -18.08493 11.26686 -0.342895 -0.2884865 1.441892 1.247452 7.166976 -7.94557 2.501153 22.18852 6.176204 2.869304 -20.07846 8.701948 2.823274 -12.94815 8.791416 91.83881 30.02503 -24.24015 -0 0 6.864605 -13.19141 12.02262 5.288969 6.873528 -21.81662 -2.804604 -84.43758 32.2086 7.253445 0 0 -26.49822 0.08205193 13.27492 15.23364
2084.41 98.71202 933.4243 2.978598 0.5266755 132.9473 6.133033 -24.66285 4.227331 -0 16.78891 -0 -5.576232 -5.349664 -6.571882 -2.729507 18.71399 -12.14059 -0 34.13051 -0 -11.56249 -14.6876 11.06145 0.2610539 -0.2309674 1.463766 1.459501 7.483533 -7.825972 2.405214 22.34897 6.041099 2.618494 -20.15977 8.593413 3.010862 -12.77872 9.034333 91.79694 29.95292 -23.81667 -0 0 6.058975 -13.3972 12.36328 5.670217 6.163341 -21.21031 -2.581302 -84.96245 31.1423 7.932215 0 0 -24.7715 0.6529829 12.77223 14.43335
2089.698 99.53856 929.3372 3.643395 1.057456 132.6764 6.609455 -19.59748 4.533482 -0 17.68293 -0 -5.63294 -6.546899 -6.316738 -2.698687 15.22749 -11.11428 -0 43.71219 -0 -11.42939 -11.12875 11.34427 0.5521052 -0.1548062 1.955647 1.598296 7.976648 -7.508941 2.238072 22.67147 5.915416 2.396766 -20.11046 8.380665 3.137843 -12.94528 9.428707 91.48357 29.77123 -23.01893 -0 0 5.711391 -13.84326 12.56704 6.240774 5.385594 -20.53479 -2.433435 -85.85127 29.92063 9.246728 0 0 -22.80952 1.072786 12.08478 13.65748
2094.839 100.751 925.2849 4.13803 2.049671 132.1449 6.429683 -13.38836 4.595148 -0 17.84455 -0 -5.547408 -7.95827 -5.793743 -2.887089 9.752027 -10.06798 -0 52.54841 -0 -10.67723 -8.162441 12.10138 0.4053578 -0.002024627 2.987753 1.567124 8.6185 -6.966056 2.051531 23.04733 5.80469 2.319265 -19.9458 8.054517 3.247167 -13.52719 9.941573 90.78618 29.7404 -21.81665 -0 0 6.083402 -14.54923 12.67385 6.912801 4.761329 -20.00035 -2.354282 -87.03437 28.64112 11.20736 0 0 -20.99392 1.410744 11.3793 12.93581
2099.691 102.0627 921.395 4.39766 3.231605 131.4723 5.806619 -7.085519 4.476988 -0 16.9464 -0 -5.37362 -9.109094 -4.9853 -3.016344 2.805412 -9.032541 -0 58.36266 -0 -9.526136 -6.373302 13.27276 -0.1060214 0.2826163 4.34159 1.328633 9.296829 -6.24192 1.892648 23.35545 5.717101 2.432001 -19.6789 7.648996 3.34983 -14.47877 10.4887 89.61882 29.99981 -20.14082 -0 0 7.274438 -15.56021 12.73255 7.66553 4.468775 -19.70526 -2.314509 -88.32333 27.35804 13.53104 0 0 -19.51667 1.751031 10.7808 12.23661
2104.222 103.1394 917.7041 4.533021 4.285196 130.7723 5.115826 -1.484172 4.266703 -0 15.17743 -0 -5.115786 -9.932679 -4.039019 -2.76063 -4.583687 -7.934725 -0 59.51201 -0 -8.347504 -5.82101 14.76688 -0.7055518 0.7064322 5.625221 0.9250269 9.855298 -5.431405 1.788712 23.51968 5.653794 2.664407 -19.29311 7.239793 3.362239 -15.66441 10.96648 87.98207 30.32478 -17.91849 -0 0 9.237424 -16.93383 12.76165 8.551448 4.531586 -19.53104 -2.30125 -89.52226 26.10494 15.80026 0 0 -18.26876 2.049439 10.26976 11.58754
